<mxfile host="app.diagrams.net" modified="2023-11-23T15:18:04.325Z" agent="Mozilla/5.0 (X11; Linux x86_64) AppleWebKit/537.36 (KHTML, like Gecko) Chrome/119.0.0.0 Safari/537.36" etag="yI3s8txGGFphm36l5njW" version="22.1.3" type="device">
  <diagram name="Page-1" id="Uqww9z8Nr08Byzau9XJZ">
    <mxGraphModel dx="2261" dy="738" grid="1" gridSize="10" guides="1" tooltips="1" connect="1" arrows="1" fold="1" page="1" pageScale="1" pageWidth="827" pageHeight="1169" math="0" shadow="0">
      <root>
        <mxCell id="0" />
        <mxCell id="1" parent="0" />
        <mxCell id="M-qtnoN8Y4Dt9xzBlkdq-27" value="" style="edgeStyle=orthogonalEdgeStyle;rounded=0;orthogonalLoop=1;jettySize=auto;html=1;" edge="1" parent="1" source="M-qtnoN8Y4Dt9xzBlkdq-1" target="M-qtnoN8Y4Dt9xzBlkdq-25">
          <mxGeometry relative="1" as="geometry" />
        </mxCell>
        <mxCell id="M-qtnoN8Y4Dt9xzBlkdq-1" value="" style="whiteSpace=wrap;html=1;" vertex="1" parent="1">
          <mxGeometry x="170" y="160" width="450" height="450" as="geometry" />
        </mxCell>
        <mxCell id="M-qtnoN8Y4Dt9xzBlkdq-3" value="Flask&lt;br&gt;(Backend)" style="text;html=1;strokeColor=none;fillColor=none;align=center;verticalAlign=middle;whiteSpace=wrap;rounded=0;" vertex="1" parent="1">
          <mxGeometry x="540" y="180" width="70" height="30" as="geometry" />
        </mxCell>
        <mxCell id="M-qtnoN8Y4Dt9xzBlkdq-4" value="" style="rounded=0;whiteSpace=wrap;html=1;" vertex="1" parent="1">
          <mxGeometry x="-80" y="160" width="160" height="450" as="geometry" />
        </mxCell>
        <mxCell id="M-qtnoN8Y4Dt9xzBlkdq-5" value="Pocketbase&lt;br&gt;(Database)" style="text;html=1;strokeColor=none;fillColor=none;align=center;verticalAlign=middle;whiteSpace=wrap;rounded=0;" vertex="1" parent="1">
          <mxGeometry y="180" width="60" height="30" as="geometry" />
        </mxCell>
        <mxCell id="M-qtnoN8Y4Dt9xzBlkdq-7" value="HTTP" style="endArrow=classic;startArrow=classic;html=1;rounded=0;entryX=0;entryY=0.5;entryDx=0;entryDy=0;exitX=1;exitY=0.5;exitDx=0;exitDy=0;" edge="1" parent="1" source="M-qtnoN8Y4Dt9xzBlkdq-4" target="M-qtnoN8Y4Dt9xzBlkdq-1">
          <mxGeometry width="50" height="50" relative="1" as="geometry">
            <mxPoint x="390" y="410" as="sourcePoint" />
            <mxPoint x="440" y="360" as="targetPoint" />
          </mxGeometry>
        </mxCell>
        <mxCell id="M-qtnoN8Y4Dt9xzBlkdq-8" value="" style="whiteSpace=wrap;html=1;" vertex="1" parent="1">
          <mxGeometry x="740" y="160" width="220" height="450" as="geometry" />
        </mxCell>
        <mxCell id="M-qtnoN8Y4Dt9xzBlkdq-9" value="React&amp;nbsp;&lt;br&gt;(Front-end)" style="text;html=1;strokeColor=none;fillColor=none;align=center;verticalAlign=middle;whiteSpace=wrap;rounded=0;" vertex="1" parent="1">
          <mxGeometry x="870" y="180" width="80" height="30" as="geometry" />
        </mxCell>
        <mxCell id="M-qtnoN8Y4Dt9xzBlkdq-10" value="HTTP &amp;amp; WS" style="endArrow=classic;startArrow=classic;html=1;rounded=0;entryX=0;entryY=0.5;entryDx=0;entryDy=0;exitX=1;exitY=0.5;exitDx=0;exitDy=0;" edge="1" parent="1" source="M-qtnoN8Y4Dt9xzBlkdq-1" target="M-qtnoN8Y4Dt9xzBlkdq-8">
          <mxGeometry width="50" height="50" relative="1" as="geometry">
            <mxPoint x="480" y="410" as="sourcePoint" />
            <mxPoint x="530" y="360" as="targetPoint" />
          </mxGeometry>
        </mxCell>
        <mxCell id="M-qtnoN8Y4Dt9xzBlkdq-11" value="users" style="rounded=0;whiteSpace=wrap;html=1;" vertex="1" parent="1">
          <mxGeometry x="-60" y="250" width="120" height="60" as="geometry" />
        </mxCell>
        <mxCell id="M-qtnoN8Y4Dt9xzBlkdq-12" value="grids" style="rounded=0;whiteSpace=wrap;html=1;" vertex="1" parent="1">
          <mxGeometry x="-60" y="340" width="120" height="60" as="geometry" />
        </mxCell>
        <mxCell id="M-qtnoN8Y4Dt9xzBlkdq-15" value="" style="rounded=0;whiteSpace=wrap;html=1;" vertex="1" parent="1">
          <mxGeometry x="200" y="230" width="190" height="320" as="geometry" />
        </mxCell>
        <mxCell id="M-qtnoN8Y4Dt9xzBlkdq-13" value="/login" style="rounded=0;whiteSpace=wrap;html=1;" vertex="1" parent="1">
          <mxGeometry x="220" y="270" width="120" height="60" as="geometry" />
        </mxCell>
        <mxCell id="M-qtnoN8Y4Dt9xzBlkdq-14" value="/signup" style="rounded=0;whiteSpace=wrap;html=1;" vertex="1" parent="1">
          <mxGeometry x="220" y="380" width="120" height="60" as="geometry" />
        </mxCell>
        <mxCell id="M-qtnoN8Y4Dt9xzBlkdq-16" value="HTTP&amp;nbsp;" style="text;html=1;strokeColor=none;fillColor=none;align=center;verticalAlign=middle;whiteSpace=wrap;rounded=0;" vertex="1" parent="1">
          <mxGeometry x="340" y="240" width="40" height="30" as="geometry" />
        </mxCell>
        <mxCell id="M-qtnoN8Y4Dt9xzBlkdq-17" value="" style="rounded=0;whiteSpace=wrap;html=1;" vertex="1" parent="1">
          <mxGeometry x="420" y="230" width="170" height="320" as="geometry" />
        </mxCell>
        <mxCell id="M-qtnoN8Y4Dt9xzBlkdq-18" value="Socket.io&lt;br&gt;Server-side" style="text;html=1;strokeColor=none;fillColor=none;align=center;verticalAlign=middle;whiteSpace=wrap;rounded=0;" vertex="1" parent="1">
          <mxGeometry x="510" y="240" width="70" height="30" as="geometry" />
        </mxCell>
        <mxCell id="M-qtnoN8Y4Dt9xzBlkdq-19" value="&#39;connected&#39;" style="rounded=0;whiteSpace=wrap;html=1;" vertex="1" parent="1">
          <mxGeometry x="445" y="280" width="120" height="60" as="geometry" />
        </mxCell>
        <mxCell id="M-qtnoN8Y4Dt9xzBlkdq-20" value="&#39;change_color&#39;" style="rounded=0;whiteSpace=wrap;html=1;" vertex="1" parent="1">
          <mxGeometry x="445" y="360" width="120" height="60" as="geometry" />
        </mxCell>
        <mxCell id="M-qtnoN8Y4Dt9xzBlkdq-22" value="" style="rounded=0;whiteSpace=wrap;html=1;" vertex="1" parent="1">
          <mxGeometry x="765" y="225" width="170" height="320" as="geometry" />
        </mxCell>
        <mxCell id="M-qtnoN8Y4Dt9xzBlkdq-23" value="Socket.io&lt;br&gt;Client-side" style="text;html=1;strokeColor=none;fillColor=none;align=center;verticalAlign=middle;whiteSpace=wrap;rounded=0;" vertex="1" parent="1">
          <mxGeometry x="870" y="240" width="60" height="30" as="geometry" />
        </mxCell>
        <mxCell id="M-qtnoN8Y4Dt9xzBlkdq-24" value="&#39;connected&#39;" style="rounded=0;whiteSpace=wrap;html=1;" vertex="1" parent="1">
          <mxGeometry x="790" y="275" width="120" height="60" as="geometry" />
        </mxCell>
        <mxCell id="M-qtnoN8Y4Dt9xzBlkdq-25" value="&#39;change_color&#39;" style="rounded=0;whiteSpace=wrap;html=1;" vertex="1" parent="1">
          <mxGeometry x="790" y="355" width="120" height="60" as="geometry" />
        </mxCell>
      </root>
    </mxGraphModel>
  </diagram>
</mxfile>
